<svg id="7d1857de-4e1d-4ad3-937b-baacafe47dc3" data-name="Layer 1" xmlns="http://www.w3.org/2000/svg" xmlns:xlink="http://www.w3.org/1999/xlink" width="1030" height="729.9" viewBox="0 0 1030.01 729.86">
    <defs>
        <linearGradient id="a5312bde-8c7e-4767-9e17-08a43f21bf92" x1="889.13" y1="701.85" x2="889.13" y2="363.3" gradientUnits="userSpaceOnUse">
            <stop offset="0" stop-color="grey" stop-opacity="0.25"/>
            <stop offset="0.5" stop-color="grey" stop-opacity="0.12"/>
            <stop offset="1" stop-color="grey" stop-opacity="0.1"/>
        </linearGradient>
        <linearGradient id="016d359d-0d48-4404-968f-1612e9b5c7a7" x1="376.53" y1="777.06" x2="376.53" y2="381.85" xlink:href="#a5312bde-8c7e-4767-9e17-08a43f21bf92"/>
    </defs>
    <title>
        static_assets
    </title>
    <ellipse cx="814.7" cy="585.2" rx="211.4" ry="41.1" fill="#1fc2a3" opacity="0.1"/>
    <g opacity="0.5">
        <path d="M 718.6 188.6 c -2.9 0.8 -6.3 2.9 -8.1 8.7 c -3.4 11.3 4.5 19 1.9 30.8 a 23 23 0 0 1 -4 8.6 c -3.1 4.3 -6.6 6.3 -9.9 9.3 a 29.5 29.5 0 0 0 -8.7 14.3 a 39.5 39.5 0 0 0 -0.4 18.6 c 1.2 5.1 3.2 8.8 5 13 a 96 96 0 0 1 5.1 16.4 a 39.9 39.9 0 0 1 1.1 8.3 a 73.2 73.2 0 0 1 -1 11.1 l -4.8 33.4 a 100.4 100.4 0 0 0 -1.3 13.2 a 65.6 65.6 0 0 0 1.5 13.2 c 1.7 8.8 3.5 18 7.3 22.7 s 10.4 3 14.4 -6.5 c 3.8 -9.1 3.9 -21.1 7.3 -30.8 c 5.3 -15.3 15.9 -17.3 21.8 -31.9 c 5.6 -14 3.9 -31.1 6.8 -47 c 2 -11.4 6.4 -21.8 9 -33.1 c 3.7 -16.2 3.4 -33.1 0.4 -45.6 a 60.5 60.5 0 0 0 -14.2 -27.5 c -2.5 -2.8 -5.2 -5.2 -8.3 -5.5 c -3.3 -0.3 -6.2 3.9 -9.5 5.2 C 726.3 189.1 722.5 187.5 718.6 188.6 Z" transform="translate(-85,-85.1)" fill="#1fc2a3"/>
        <path d="M 736.6 183.2 S 731 327.6 707.3 412.7" transform="translate(-85,-85.1)" fill="none" stroke="#535461" stroke-miterlimit="10" stroke-width="2"/>
        <path d="M 710.4 198 s 25.4 23.1 20.5 67" transform="translate(-85,-85.1)" fill="none" stroke="#535461" stroke-miterlimit="10" stroke-width="2"/>
        <path d="M 689.1 263.7 s 41.6 8.4 38.5 33.3" transform="translate(-85,-85.1)" fill="none" stroke="#535461" stroke-miterlimit="10" stroke-width="2"/>
        <path d="M 762.2 215.1 s -16.8 14.7 -31.8 56.5" transform="translate(-85,-85.1)" fill="none" stroke="#535461" stroke-miterlimit="10" stroke-width="2"/>
        <path d="M 745.7 341.3 s -11.5 9 -20.7 -22.5" transform="translate(-85,-85.1)" fill="none" stroke="#535461" stroke-miterlimit="10" stroke-width="2"/>
        <path d="M 696.1 359.7 s 23.4 -3.1 25.6 -17.7" transform="translate(-85,-85.1)" fill="none" stroke="#535461" stroke-miterlimit="10" stroke-width="2"/>
    </g>
    <path d="M 775.3 91.8 c -5.8 0.9 -12.8 3.5 -15.7 11.8 c -5.6 16.3 11.5 28.6 7.5 45.6 A 25.5 25.5 0 0 1 760 161.5 c -6 5.9 -12.9 8.5 -19.4 12.5 s -13.3 10.3 -16.3 20 c -2.9 9.3 -1.7 19.6 1.4 27.3 s 7.7 13.4 11.8 19.7 A 133.7 133.7 0 0 1 750 265.7 A 46.9 46.9 0 0 1 753.3 278 c 0.5 5.2 -0.1 10.8 -0.8 16.3 L 746.6 343 c -0.8 6.5 -1.6 13.1 -1.1 19.3 c 0.5 7.2 2.6 13.5 4.7 19.6 c 4.5 13.2 9.4 27 17.9 34.3 s 21.9 5.7 29.1 -7.8 c 6.9 -12.9 5.6 -30.7 11.4 -44.5 c 9.2 -21.8 30.9 -23.6 41.3 -44.3 c 10 -19.9 4.4 -45.3 8.4 -68.4 c 2.9 -16.6 10.7 -31.4 14.7 -47.6 c 5.8 -23.5 3 -48.3 -4.6 -67 s -19.7 -32 -32.6 -42.2 c -5.5 -4.3 -11.3 -8.3 -17.8 -9 c -6.9 -0.8 -12.4 5 -19.1 6.5 C 791.2 93.4 783.1 90.7 775.3 91.8 Z" transform="translate(-85,-85.1)" fill="#1fc2a3"/>
    <path d="M 811.9 86 s 5.5 211.9 -33.6 334.4" transform="translate(-85,-85.1)" fill="none" stroke="#535461" stroke-miterlimit="10" stroke-width="2"/>
    <path d="M 759.4 104.7 s 55.2 37 50.5 101.2" transform="translate(-85,-85.1)" fill="none" stroke="#535461" stroke-miterlimit="10" stroke-width="2"/>
    <path d="M 723.1 198.8 s 87.1 17.3 83.7 53.5" transform="translate(-85,-85.1)" fill="none" stroke="#535461" stroke-miterlimit="10" stroke-width="2"/>
    <path d="M 868.5 135.9 s -33.1 19.7 -59.2 79.4" transform="translate(-85,-85.1)" fill="none" stroke="#535461" stroke-miterlimit="10" stroke-width="2"/>
    <path d="M 849.4 319.8 s -22.7 12 -45.5 -35.6" transform="translate(-85,-85.1)" fill="none" stroke="#535461" stroke-miterlimit="10" stroke-width="2"/>
    <path d="M 749 341 s 48.1 -1.7 50.9 -23.1" transform="translate(-85,-85.1)" fill="none" stroke="#535461" stroke-miterlimit="10" stroke-width="2"/>
    <path d="M 152.2 663.7 s 8.4 11 -3.9 27.5 S 126 721.7 130.1 732 c 0 0 18.5 -30.7 33.5 -31.2 S 168.8 682.1 152.2 663.7 Z" transform="translate(-85,-85.1)" fill="#1fc2a3"/>
    <path d="M 152.2 663.7 A 13.6 13.6 0 0 1 154 667.1 c 14.7 17.2 22.5 33.3 8.4 33.7 c -13.1 0.4 -28.9 23.9 -32.7 29.8 a 12.7 12.7 0 0 0 0.5 1.4 s 18.5 -30.7 33.5 -31.2 S 168.8 682.1 152.2 663.7 Z" transform="translate(-85,-85.1)" opacity="0.1"/>
    <path d="M 167.8 677.6 c 0 3.9 -0.4 7 -1 7 s -1 -3.1 -1 -7 s 0.5 -2 1.1 -2 S 167.8 673.8 167.8 677.6 Z" transform="translate(-85,-85.1)" fill="#ffd037"/>
    <path d="M 173.2 682.2 c -3.4 1.9 -6.3 3 -6.6 2.5 s 2.3 -2.4 5.7 -4.2 s 2 -0.5 2.3 0 S 176.6 680.4 173.2 682.2 Z" transform="translate(-85,-85.1)" fill="#ffd037"/>
    <path d="M 108 663.7 s -8.4 11 3.9 27.5 s 22.4 30.5 18.3 40.8 c 0 0 -18.5 -30.7 -33.5 -31.2 S 91.4 682.1 108 663.7 Z" transform="translate(-85,-85.1)" fill="#1fc2a3"/>
    <path d="M 108 663.7 a 13.6 13.6 0 0 0 -1.7 3.4 c -14.7 17.2 -22.5 33.3 -8.4 33.7 c 13.1 0.4 28.9 23.9 32.7 29.8 a 12.7 12.7 0 0 1 -0.5 1.4 s -18.5 -30.7 -33.5 -31.2 S 91.4 682.1 108 663.7 Z" transform="translate(-85,-85.1)" opacity="0.1"/>
    <path d="M 92.4 677.6 c 0 3.9 0.4 7 1 7 s 1 -3.1 1 -7 s -0.5 -2 -1.1 -2 S 92.4 673.8 92.4 677.6 Z" transform="translate(-85,-85.1)" fill="#ffd037"/>
    <path d="M 87 682.2 c 3.4 1.9 6.3 3 6.6 2.5 s -2.3 -2.4 -5.7 -4.2 s -2 -0.5 -2.3 0 S 83.7 680.4 87 682.2 Z" transform="translate(-85,-85.1)" fill="#ffd037"/>
    <path d="M 95.1 730.6 s 23.4 -0.7 30.5 -5.8 s 36 -11 37.8 -3 s 35.2 40.1 8.8 40.3 s -61.5 -4.1 -68.5 -8.4 S 95.1 730.6 95.1 730.6 Z" transform="translate(-85,-85.1)" fill="#a8a8a8"/>
    <path d="M 172.6 759.4 c -26.4 0.2 -61.5 -4.1 -68.5 -8.4 c -5.4 -3.3 -7.5 -15 -8.2 -20.4 l -0.8 0 s 1.5 18.9 8.5 23.2 s 42.1 8.6 68.5 8.4 c 7.6 -0.1 10.3 -2.8 10.1 -6.8 C 181.2 757.8 178.3 759.3 172.6 759.4 Z" transform="translate(-85,-85.1)" opacity="0.2"/>
    <path d="M 1067.3 659.1 a 11.7 11.7 0 0 0 3.8 -5.8 c 0.5 -2.3 -0.5 -5 -2.7 -5.9 c -2.5 -0.9 -5.1 0.8 -7.1 2.5 s -4.3 3.7 -6.9 3.3 a 10.5 10.5 0 0 0 3.2 -9.8 a 4.1 4.1 0 0 0 -0.9 -2 c -1.4 -1.5 -3.8 -0.8 -5.5 0.3 c -5.2 3.7 -6.7 10.7 -6.7 17.1 c -0.5 -2.3 -0.1 -4.7 -0.1 -7 s -0.7 -5 -2.6 -6.2 a 8 8 0 0 0 -4 -0.9 c -2.3 -0.1 -4.9 0.1 -6.5 1.9 c -2 2.1 -1.5 5.7 0.3 8 s 4.3 3.8 6.8 5.4 a 15 15 0 0 1 4.8 4.6 a 4.6 4.6 0 0 1 0.4 0.8 h 14.7 A 40.8 40.8 0 0 0 1067.3 659.1 Z" transform="translate(-85,-85.1)" fill="#1fc2a3"/>
    <path d="M 231.7 565.4 c 31.8 40.5 19.5 99.6 -0.8 146.9 c -6.8 15.8 -14.4 32.6 -11.6 49.6 c 3.5 20.8 22 36 41.5 44 c 35.5 14.7 78 11.2 110.6 -9.1 c 28.2 -17.5 48.4 -46.1 77 -62.8 c 48 -28 109.1 -17.4 161.2 1.9 c 36.9 13.7 77.2 31.4 113.8 17.1 c 25.8 -10 43.6 -34.5 53.3 -60.4 c 4.7 -12.5 8.1 -26 17 -36 c 5.3 -5.9 12.3 -10.1 19.4 -13.6 c 65 -32.2 147 -15 210.1 -50.7 c 42.6 -24.1 69.9 -69.6 82 -117.1 s 10.7 -97.2 7.6 -146.1 c -2.2 -34.7 -6.1 -71.8 -28.3 -98.6 c -23.5 -28.4 -63.8 -38.9 -100.2 -33.5 S 915 221.8 886 244.4 c -36.3 28.3 -69.9 63.5 -114.5 74.9 c -30.3 7.8 -62.3 3.5 -93.6 2.1 c -52.3 -2.5 -104.7 3 -156.7 9 c -49.8 5.8 -100 12.1 -147.4 28.3 c -33.6 11.5 -60.5 32.3 -92.2 46.8 c -20.7 9.5 -43.2 12.1 -62.8 24.2 c -24.1 14.9 -46.2 40.7 -40 71 C 184.7 529.5 214.8 543.9 231.7 565.4 Z" transform="translate(-85,-85.1)" fill="#1fc2a3" opacity="0.1"/>
    <ellipse cx="552.4" cy="439.2" rx="427.7" ry="41.1" fill="#1fc2a3" opacity="0.1"/>
    <ellipse cx="223.7" cy="676.2" rx="211.4" ry="41.1" fill="#1fc2a3" opacity="0.1"/>
    <path d="M 524.7 511.5 l -3.4 4.9 s 3.6 4.9 4 5.5 s 10.7 -0.3 10.7 -0.3 l 0.9 -3.6 l -1.5 -4.3 Z" transform="translate(-85,-85.1)" fill="#e6e6f0"/>
    <polygon points="327.1,423.7 320.4,424.9 324.6,433.1 329.2,435.5 333.5,438.6 334.7,435.2 331.6,428.8 327.1,423.7" fill="#fdc2cc"/>
    <path d="M 521.7 429.6 s 35.6 8.5 42.3 18 c 0 0 6.1 5.2 0 14.6 s -14.6 30.8 -14.6 30.8 s -6.1 20.7 -8.5 22.2 s -16.4 2.7 -17.7 -3 c 0 0 7.9 -12.5 7.9 -18.3 s 13.1 -33.2 13.1 -33.2 s -29.8 -3.4 -39.3 -1.2 S 509.2 426.2 521.7 429.6 Z" transform="translate(-85,-85.1)" fill="#565171"/>
    <path d="M 521.7 429.6 s 35.6 8.5 42.3 18 c 0 0 6.1 5.2 0 14.6 s -14.6 30.8 -14.6 30.8 s -6.1 20.7 -8.5 22.2 s -16.4 2.7 -17.7 -3 c 0 0 7.9 -12.5 7.9 -18.3 s 13.1 -33.2 13.1 -33.2 s -29.8 -3.4 -39.3 -1.2 S 509.2 426.2 521.7 429.6 Z" transform="translate(-85,-85.1)" opacity="0.1"/>
    <path d="M 514.4 437.8 c -0.1 1.8 -0.3 3.8 -0.5 5.9 c -1.9 15.5 -8.3 38.5 -8.3 38.5 s -6.4 13.7 -8.2 22.5 s -14.3 11 -14.3 11 s -34.1 4 -41.1 2.4 s -18 4.6 -23.4 3.6 s -8.8 -13.7 -8.8 -13.7 a 66 66 0 0 0 27.4 -5.8 c 14 -6.4 34.1 -3.4 34.1 -3.4 a 11.4 11.4 0 0 0 7 -5.8 c 2.1 -4.6 2.1 -32.3 1.5 -34.1 c -4 -12 -3.7 -19.7 -2.5 -24.2 a 12.1 12.1 0 0 1 2.5 -5.3 Z" transform="translate(-85,-85.1)" fill="#565171"/>
    <path d="M 514.4 437.8 c -0.1 1.8 -0.3 3.8 -0.5 5.9 c -3.1 0.2 -11.6 0.5 -18 -3.5 c -6 -3.7 -14.7 -4.9 -18.7 -5.3 a 12.1 12.1 0 0 1 2.5 -5.3 Z" transform="translate(-85,-85.1)" opacity="0.1"/>
    <path d="M 518.6 434 c -1.4 4 -3.6 8.7 -3.6 8.7 s -11.3 1.5 -19.2 -3.4 s -20.7 -5.5 -20.7 -5.5 c 2.1 -1.3 3.5 -5.1 4.3 -8.5 a 53.9 53.9 0 0 0 1.1 -5.8 s 37.4 7.6 39 8.8 C 520.1 428.9 519.5 431.3 518.6 434 Z" transform="translate(-85,-85.1)" fill="#e6e6f0"/>
    <path d="M 585.3 305.7 L 539.9 333.1 l -4.5 2.7 V 322.4 l 3.1 -1.5 l 38.3 -18.3 s 1.8 -33.2 6.7 -28 S 585.3 305.7 585.3 305.7 Z" transform="translate(-85,-85.1)" fill="#fdc2cc"/>
    <path d="M 539.9 333.1 l -4.5 2.7 V 322.4 l 3.1 -1.5 A 98.5 98.5 0 0 0 539.9 333.1 Z" transform="translate(-85,-85.1)" opacity="0.1"/>
    <path d="M 504.9 338 l 32.6 -18.9 s 0.6 18.3 4.3 21 c 0 0 -13.4 4 -18.6 12.5 Z" transform="translate(-85,-85.1)" fill="#b45181"/>
    <path d="M 504.9 338 l 32.6 -18.9 s 0.6 18.3 4.3 21 c 0 0 -13.4 4 -18.6 12.5 Z" transform="translate(-85,-85.1)" opacity="0.1"/>
    <path d="M 585 354.1 s -15.5 6.8 -25.8 9.2 a 20.2 20.2 0 0 1 -7.1 0.8 c -7 -1.2 1.8 -10 1.8 -10 l 3.7 -0.6 l 19.8 -3.1 s 2.1 -30.4 5.8 -28 S 585 354.1 585 354.1 Z" transform="translate(-85,-85.1)" fill="#fdc2cc"/>
    <path d="M 519.5 326.7 s -13.1 9.7 -8.2 21.9 s -25.3 -7.3 -25.3 -7.3 s 9.7 -14.6 11.9 -25.6 S 519.5 326.7 519.5 326.7 Z" transform="translate(-85,-85.1)" fill="#fdc2cc"/>
    <path d="M 518.6 434 a 69 69 0 0 0 -17.6 -4.1 c -8.8 -1 -16.9 -2.7 -21.5 -4.5 a 53.9 53.9 0 0 0 1.1 -5.8 s 37.4 7.6 39 8.8 C 520.1 428.9 519.5 431.3 518.6 434 Z" transform="translate(-85,-85.1)" opacity="0.1"/>
    <path d="M 559.2 363.3 a 20.2 20.2 0 0 1 -7.1 0.8 c -7 -1.2 1.8 -10 1.8 -10 l 3.7 -0.6 C 559.2 355.9 560.7 359.6 559.2 363.3 Z" transform="translate(-85,-85.1)" opacity="0.1"/>
    <path d="M 498.2 332.2 s -11.9 -0.3 -16.1 4.6 s -3.4 18 -3.4 18 s -0.9 26.3 5.8 41 a 2 2 0 0 1 0.1 1.5 c -0.1 0.2 -0.1 0.1 -0.1 0.1 s -4.3 19.2 -8.5 22.5 s 9.1 7.3 25 9.1 s 22.2 6.4 22.2 6.4 s 2.7 -3 3 -9.7 S 522 369.9 522 369.9 s 16.7 4.3 26.8 -0.9 c 0 0 4.6 2.4 8.8 -4.3 s -3 -14 -3 -14 s -6.7 6.7 -25.3 -2.1 S 504 331.9 498.2 332.2 Z" transform="translate(-85,-85.1)" fill="#b45181"/>
    <path d="M 407.2 509.4 h -3.6 v 5.2 l 3.6 8.2 s 4.9 0.9 5.2 0.9 s 4.3 -0.9 4.3 -0.9 l 1.2 -2.1 S 404.5 515.4 407.2 509.4 Z" transform="translate(-85,-85.1)" fill="#e6e6f0"/>
    <path d="M 521.7 514.2 l -5.5 12.2 l 23.1 11 l 18.3 0.6 s 1.5 -4.3 -4.6 -6.4 l -4.9 -0.9 s -6.4 -11.6 -7 -17 c 0 0 -6.1 1.2 -7 5.8 C 534.1 519.4 525.6 523.6 521.7 514.2 Z" transform="translate(-85,-85.1)" fill="#b45181"/>
    <path d="M 404.5 508.1 l -1.9 1.5 l -8.2 6.7 l 18.9 25 s 10.7 4.6 15.5 0 c 0 0 3 -3 -3.6 -5.5 c 0 0 -5.2 0.9 -5.2 -4.3 s 1.2 -10.7 3 -11.9 c 0 0 -4.6 -1.5 -5.8 -0.3 a 19.3 19.3 0 0 0 -2.4 3.4 S 403.9 518.5 404.5 508.1 Z" transform="translate(-85,-85.1)" fill="#b45181"/>
    <path d="M 497.3 316.3 a 37 37 0 0 1 -1.2 4.6 a 15.8 15.8 0 0 0 20.3 8.7 a 25.2 25.2 0 0 1 2.6 -2.3 S 499.4 305.4 497.3 316.3 Z" transform="translate(-85,-85.1)" opacity="0.1"/>
    <path d="M 495.6 357 s 9.4 12.5 23.1 12.8" transform="translate(-85,-85.1)" opacity="0.1"/>
    <g opacity="0.1">
        <path d="M 552.1 369.2 a 3.4 3.4 0 0 1 -0.6 -0.2 q -0.4 0.2 -0.9 0.4 A 5.7 5.7 0 0 0 552.1 369.2 Z" transform="translate(-85,-85.1)"/>
        <path d="M 555.3 352 a 15.1 15.1 0 0 0 -1.1 -1.2 s -2 2 -6.9 2.4 A 16.8 16.8 0 0 0 555.3 352 Z" transform="translate(-85,-85.1)"/>
        <path d="M 524.7 369.9 l 0.1 0.7 a 60.5 60.5 0 0 0 12.2 1 A 63.4 63.4 0 0 1 524.7 369.9 Z" transform="translate(-85,-85.1)"/>
        <path d="M 503.7 429 c -15.8 -1.8 -29.2 -5.8 -25 -9.1 s 8.5 -22.5 8.5 -22.5 s 0 0.1 0.1 -0.1 a 2 2 0 0 0 -0.1 -1.5 c -6.7 -14.8 -5.8 -41 -5.8 -41 s -0.9 -13.1 3.4 -18 c 3.2 -3.6 10.6 -4.4 14.1 -4.5 a 6.5 6.5 0 0 0 -1 0 s -11.9 -0.3 -16.1 4.6 s -3.4 18 -3.4 18 s -0.9 26.3 5.8 41 a 2 2 0 0 1 0.1 1.5 c -0.1 0.2 -0.1 0.1 -0.1 0.1 S 480 416.5 475.7 419.9 s 9.1 7.3 25 9.1 s 22.2 6.4 22.2 6.4 a 7.8 7.8 0 0 0 0.8 -1.2 C 520.7 432.6 514.3 430.2 503.7 429 Z" transform="translate(-85,-85.1)"/>
    </g>
    <circle cx="426.3" cy="229.1" r="15.8" fill="#fdc2cc"/>
    <path d="M 533.9 307.1 c -1.3 3.3 -5.2 4.5 -8.7 5.4 c -4.9 1.2 -10.2 2.4 -14.9 0.5 a 3.3 3.3 0 0 0 -2 -0.4 a 2.7 2.7 0 0 0 -1.3 1.1 c -5.2 7.4 -4.3 17.2 -5.7 26.1 c -0.4 2.8 -1.1 5.6 -3 7.7 c -3.6 4 -10.5 3.9 -13.9 8.1 c -2.2 2.8 -2.2 6.7 -2.2 10.3 q 0 5.7 -0.1 11.4 c -0.1 2.5 -0.2 5.1 -1.3 7.3 c -1.9 3.8 -6.2 5.5 -10.2 7 c -2.5 0.9 -5 1.9 -7.6 1.6 s -5.3 -2 -5.6 -4.6 c -0.5 -3.6 3.2 -6.1 5.8 -8.7 c 4.1 -4.1 5.7 -10.1 5.9 -15.9 a 17 17 0 0 0 -1 -6.9 c -0.9 -2.3 -2.6 -4.2 -3.6 -6.4 c -3.1 -6.9 0.7 -14.9 5.3 -20.9 s 10.1 -11.9 11.1 -19.4 a 26.9 26.9 0 0 1 0.7 -4.8 c 0.7 -2.2 2.4 -8.2 4.2 -9.6 a 21.8 21.8 0 0 1 10 -4.2 c 2.8 -0.4 5.7 -0.3 8.5 -0.8 c 3.3 -0.6 6.3 -2.2 9.6 -2.8 c 7 -1.3 14.7 6.9 17.8 13.4 C 532.4 303.7 534.6 305.1 533.9 307.1 Z" transform="translate(-85,-85.1)" opacity="0.1"/>
    <path d="M 533.9 306.5 c -1.3 3.3 -5.2 4.5 -8.7 5.4 c -4.9 1.2 -10.2 2.4 -14.9 0.5 a 3.3 3.3 0 0 0 -2 -0.4 a 2.7 2.7 0 0 0 -1.3 1.1 c -5.2 7.4 -4.3 17.2 -5.7 26.1 c -0.4 2.8 -1.1 5.6 -3 7.7 c -3.6 4 -10.5 3.9 -13.9 8.1 c -2.2 2.8 -2.2 6.7 -2.2 10.3 q 0 5.7 -0.1 11.4 c -0.1 2.5 -0.2 5.1 -1.3 7.3 c -1.9 3.8 -6.2 5.5 -10.2 7 c -2.5 0.9 -5 1.9 -7.6 1.6 s -5.3 -2 -5.6 -4.6 c -0.5 -3.6 3.2 -6.1 5.8 -8.7 c 4.1 -4.1 5.7 -10.1 5.9 -15.9 a 17 17 0 0 0 -1 -6.9 c -0.9 -2.3 -2.6 -4.2 -3.6 -6.4 c -3.1 -6.9 0.7 -14.9 5.3 -20.9 s 10.1 -11.9 11.1 -19.4 a 26.9 26.9 0 0 1 0.7 -4.8 c 0.7 -2.2 2.4 -8.2 4.2 -9.6 a 21.8 21.8 0 0 1 10 -4.2 c 2.8 -0.4 5.7 -0.3 8.5 -0.8 c 3.3 -0.6 6.3 -2.2 9.6 -2.8 c 7 -1.3 14.7 6.9 17.8 13.4 C 532.4 303.1 534.6 304.5 533.9 306.5 Z" transform="translate(-85,-85.1)" fill="#f569bc"/>
    <path d="M 585 276.1 H 848.2 V 539.2 H 585 Z" transform="translate(-85,-85.1)" fill="#f7df1e"/>
    <path d="M 654.2 496 l 20.1 -12.2 c 3.9 6.9 7.4 12.7 15.9 12.7 c 8.1 0 13.3 -3.2 13.3 -15.5 V 396.9 h 24.7 v 84.4 c 0 25.6 -15 37.3 -36.9 37.3 c -19.8 0 -31.3 -10.3 -37.1 -22.6 m 87.4 -2.6 l 20.1 -11.7 c 5.3 8.7 12.2 15 24.4 15 c 10.3 0 16.8 -5.1 16.8 -12.2 c 0 -8.5 -6.7 -11.5 -18 -16.4 l -6.2 -2.6 c -17.8 -7.6 -29.7 -17.1 -29.7 -37.3 c 0 -18.6 14.1 -32.7 36.2 -32.7 c 15.7 0 27 5.5 35.1 19.8 l -19.3 12.4 c -4.2 -7.6 -8.8 -10.6 -15.9 -10.6 c -7.2 0 -11.8 4.6 -11.8 10.6 c 0 7.4 4.6 10.4 15.2 15 l 6.2 2.6 c 21 9 32.9 18.2 32.9 38.9 c 0 22.3 -17.5 34.5 -41 34.5 c -23 0 -37.8 -11 -45 -25.3" transform="translate(-85,-85.1)"/>
    <path d="M 963.6 685.3 S 953.3 686 947 675 a 36.9 36.9 0 0 0 -4.4 -6.2 a 21 21 0 0 1 -3.1 -11.2 c 0.3 -8.2 -8.2 -52.8 -8.2 -52.8 s 1.1 -17 -7.4 -27.6 c -5.6 -7 -13.7 -27 -18.5 -39.9 a 2.7 2.7 0 0 0 1.1 0.6 l -0.2 -1.1 l 0.2 0 L 904.1 523 a 62.9 62.9 0 0 1 -9.2 -13.9 l 0.6 -0.1 l 7.5 -1.6 s 12.2 -17.4 13 -25.9 l 1 0 h 1.4 a 294 294 0 0 1 33.9 1.8 h 0 c 0 -0.1 -0.1 -0.3 -0.2 -0.6 h 0 a 42.5 42.5 0 0 1 -1.1 -5.2 l 0.7 0 l 7 -0.5 s 24.1 -26.9 15.2 -31.9 s -18.1 22.3 -18.1 22.3 l -3 0.5 l -0.8 0.1 c 0.1 -0.1 0.2 -0.2 0.3 -0.3 S 913 466 906.9 456.4 c 0 0 -17.4 -13.8 -18.1 -23 a 10.4 10.4 0 0 0 -6.2 -8.8 a 13.6 13.6 0 0 0 -6.9 -1.3 l -8.1 0.6 l 0.6 1 l -0.2 0 a 27.4 27.4 0 0 1 -1.3 -3.6 l 0.2 0 c -0.1 -0.3 -0.1 -0.5 -0.2 -0.8 a 19.1 19.1 0 0 0 14.1 -23.6 a 7.7 7.7 0 0 0 2.4 -0.1 c 3 -0.6 5.1 -3.6 5.2 -6.7 c 0 -0.2 0 -0.4 0 -0.6 c 0 0 0 -0.1 0 -0.1 a 10.3 10.3 0 0 0 -4 -7.9 c -1.6 -1.4 -3.6 -2.3 -5 -3.8 c -1.8 -1.8 -2.7 -4.2 -4.1 -6.3 a 18.7 18.7 0 0 0 -9.6 -7.5 c -2.9 -1 -6.5 -1.1 -8.8 1 c -1.2 1.1 -1.8 2.7 -3.1 3.6 c -1.9 1.3 -4.4 0.9 -6.7 1.2 a 12.8 12.8 0 0 0 -9.6 7.2 a 16.6 16.6 0 0 0 -1.6 7.6 a 20.4 20.4 0 0 0 0.6 5.3 c 0.4 1.7 1.1 3.4 1.6 5.2 c 1 3.6 1.2 7.4 2.4 10.9 a 13.8 13.8 0 0 0 4.4 6.7 l -0.3 1.5 c -0.2 0 -5.7 1.2 -9.6 9.6 c -3 6.6 -13.2 13.3 -17.7 16.1 a 7.4 7.4 0 0 0 -3.3 4.6 a 24.1 24.1 0 0 0 -0.6 5.9 c -0.1 4.3 0.8 10.2 4.2 17.7 c 7.8 17 13.5 24.4 13.5 24.4 s 0.4 5.2 0.5 10.7 c 0 4.1 -0.3 8.2 -1.2 10.2 c -0.7 1.7 -1 6.1 -0.9 11.1 c 0 9.6 0.9 22.2 0.9 22.2 s 2.7 0.5 6.9 1.1 l 2.6 45.9 a 22.1 22.1 0 0 1 -5 15.3 a 33.9 33.9 0 0 1 -6.3 6 c -7.4 5.3 -23.4 61.3 -23.4 61.3 s 0.8 0 2.1 0.1 l -4.9 13.7 s 19.6 15 31.5 10.9 a 11.5 11.5 0 0 1 4 -0.6 c 2.4 0 7.4 -1.9 4.6 -4.3 a 181.5 181.5 0 0 1 -15.3 -15.9 a 8.1 8.1 0 0 1 1.1 0.7 v -0.1 l 0.2 0.1 s 0 -0.6 0.1 -1.4 l -0.2 -0.1 c 0.4 -3.7 1.5 -13 3.8 -14.1 c 2.8 -1.4 23.7 -42.9 23.7 -42.9 l 20.9 -53.9 s 16.6 28.7 30.8 33.6 v 12 s 7.8 35.4 10.6 39.3 s 0 19.5 0 19.5 a 9.7 9.7 0 0 0 1.9 1.7 l -2.3 12.8 s 16.3 -0.7 43.9 7.8 C 961.8 695.5 972.5 691 963.6 685.3 Z M 898.4 500 l -3.5 0.9 l -0.7 0.2 c -0.1 -0.4 -0.1 -0.7 -0.1 -0.7 a 7 7 0 0 1 -2.5 0.6 a 46.1 46.1 0 0 1 -2.1 -11.9 a 80.5 80.5 0 0 1 -2.1 -14.8 c 0 -2.6 0.4 -4.8 1.4 -6.1 l 1.1 0.1 l 0.8 0.8 l 0.1 0.1 l 0.4 0.4 h 0 l 0.4 0.4 l 0.1 0.1 l 0.5 0.4 l 0.1 0.1 l 0.5 0.4 l 0 0 l 0.5 0.4 l 0.1 0.1 l 0.6 0.5 l 0 0 l 0.6 0.4 l 0.1 0.1 l 0.6 0.5 l 0.1 0.1 l 0.6 0.4 l 0.1 0.1 l 0.7 0.5 l 0.2 0.1 l 0.7 0.5 l 0.1 0 l 0.7 0.5 l 0.2 0.1 l 0.7 0.5 l 0.2 0.1 l 0.7 0.4 l 0.1 0.1 l 0.8 0.5 l 0.2 0.1 l 0.8 0.5 l 0.1 0 l 0.8 0.4 l 0.2 0.1 l 0.8 0.4 l 0.2 0.1 l 0.8 0.4 l 0.1 0.1 l 0.9 0.4 l 0.2 0.1 l 0.9 0.4 h 0 C 901.3 485.5 898.4 500 898.4 500 Z" transform="translate(-85,-85.1)" fill="url(#a5312bde-8c7e-4767-9e17-08a43f21bf92)"/>
    <path d="M 811 668.2 l -6.6 18.3 s 18 13.8 29.7 10.9 a 32.7 32.7 0 0 1 5.4 -0.9 c 2.4 -0.2 6.6 -1.9 4 -4.2 c -8.3 -7.3 -19.4 -20.8 -19.4 -20.8 Z" transform="translate(-85,-85.1)" fill="#4f4d59"/>
    <path d="M 920.3 666.4 l -3.1 17.6 s 15.9 -0.7 42.9 7.6 c 0 0 10.4 -4.5 1.7 -10 c 0 0 -10 0.7 -16.3 -10 s -10 -9.3 -10 -9.3 Z" transform="translate(-85,-85.1)" fill="#4f4d59"/>
    <path d="M 838 538.5 l 3 53.7 a 22.2 22.2 0 0 1 -5.3 15.7 a 32.5 32.5 0 0 1 -5.7 5.3 c -7.3 5.2 -22.8 59.8 -22.8 59.8 s 17.6 1 22.5 4.5 c 0 0 1 -13.8 3.8 -15.2 s 23.2 -41.9 23.2 -41.9 l 20.4 -52.6 s 16.3 28 30.1 32.9 v 11.8 s 7.6 34.6 10.4 38.4 s 0 19 0 19 s 8 10 26.3 -0.7 c 0 0 -5.9 -6.6 -5.5 -14.5 s -8 -51.5 -8 -51.5 s 1 -16.6 -7.3 -27 S 901 526 901 526 l -9.5 -20.5 Z" transform="translate(-85,-85.1)" fill="#c48c96"/>
    <g opacity="0.1">
        <path d="M 810.5 673 s 15.6 -54.6 22.8 -59.8 a 33 33 0 0 0 6 -5.7 a 22 22 0 0 0 5 -15.3 l -3 -53.7 l 51 -31.4 l -0.7 -1.5 L 838.2 538.5 l 3 53.7 a 22 22 0 0 1 -5 15.3 a 33 33 0 0 1 -6 5.7 C 823 618.4 807.4 673 807.4 673 s 17.6 1 22.5 4.5 c 0 0 0 -0.5 0.1 -1.4 C 823.2 673.8 810.5 673 810.5 673 Z" transform="translate(-85,-85.1)"/>
        <path d="M 920.9 669.9 s 2.8 -15.2 0 -19 s -10.4 -38.4 -10.4 -38.4 V 600.7 c -13.8 -4.8 -30.1 -32.9 -30.1 -32.9 L 879.2 571 c 4.7 7.4 17.2 25.9 28.2 29.7 v 11.8 s 7.6 34.6 10.4 38.4 s 0 19 0 19 s 3.9 4.9 12.4 4.2 C 923.8 673.6 920.9 669.9 920.9 669.9 Z" transform="translate(-85,-85.1)"/>
    </g>
    <path d="M 957 478.3 l -6.8 0.5 l -3.6 0.2 v -8.7 l 4.7 -0.8 l 2.9 -0.5 s 9 -26.6 17.6 -21.8 S 957 478.3 957 478.3 Z" transform="translate(-85,-85.1)" fill="#714b4f"/>
    <path d="M 848.1 407 s -4.5 17.3 -5.9 28 s 32.2 2.1 32.2 2.1 s -12.8 -15.6 -5.5 -23.9 Z" transform="translate(-85,-85.1)" fill="#714b4f"/>
    <path d="M 884.4 479 l 0.7 6.6 l -10.7 -0.7 l -10.7 -9.3 L 852.9 445.4 L 846 434.7 l -5.2 -6.6 l 2.1 -8 s 0.9 0.8 2.5 2 c 5.3 4 17.6 12.4 26.6 10.1 a 10.8 10.8 0 0 0 1.2 -0.4 l 13.5 23.2 Z" transform="translate(-85,-85.1)" fill="#e6e6f0"/>
    <path d="M 845.6 418.1 s -5.5 1 -9.3 9.3 c -2.9 6.4 -12.8 13 -17.2 15.7 a 7.4 7.4 0 0 0 -3.4 4.7 c -0.9 3.9 -1.2 11.3 3.6 21.9 c 7.6 16.6 13.1 23.9 13.1 23.9 s 1.4 16.6 -0.7 21.4 s 0 31.5 0 31.5 s 36.3 6.9 48.4 0 s 10.4 -33.5 10.4 -33.5 s 11.4 24.2 15.6 24.9 l -2.4 -13.5 s -13.5 -14.5 -14.2 -33.2 c 0 0 -4.2 -16.9 -0.7 -21.4 c 0 0 58.5 4.8 61.9 0.7 c 0 0 -38.4 -1.7 -44.3 -11.1 c 0 0 -16.9 -13.5 -17.6 -22.5 a 9.9 9.9 0 0 0 -5.2 -8.2 a 13.5 13.5 0 0 0 -7.8 -1.7 l -7.8 0.5 s 13.5 23.9 12.8 27 s 0.7 28.4 0.7 28.4 S 866 449.2 859.1 445.4 S 844.3 426 844.3 426 l 1.4 -7.9" transform="translate(-85,-85.1)" opacity="0.1"/>
    <path d="M 884.4 479 l 0.7 6.6 l -10.7 -0.7 l -10.7 -9.3 L 852.9 445.4 L 846 434.7 l -5.2 -6.6 l 2.1 -8 s 0.9 0.8 2.5 2 l -0.5 2.7 s 8 15.6 14.9 19.4 s 22.5 37.4 22.5 37.4 s -1.4 -25.3 -0.7 -28.4 c 0.5 -2.1 -5.6 -13.8 -9.5 -21.1 a 10.8 10.8 0 0 0 1.2 -0.4 l 13.5 23.2 Z" transform="translate(-85,-85.1)" opacity="0.1"/>
    <path d="M 950.2 478.7 l -3.6 0.2 v -8.7 l 4.7 -0.8 C 949.7 471.6 949.8 475.5 950.2 478.7 Z" transform="translate(-85,-85.1)" opacity="0.1"/>
    <path d="M 845.6 417.1 s -5.5 1 -9.3 9.3 c -2.9 6.4 -12.8 13 -17.2 15.7 a 7.4 7.4 0 0 0 -3.4 4.7 c -0.9 3.9 -1.2 11.3 3.6 21.9 c 7.6 16.6 13.1 23.9 13.1 23.9 s 1.4 16.6 -0.7 21.4 s 0 31.5 0 31.5 s 36.3 6.9 48.4 0 s 10.4 -33.5 10.4 -33.5 S 902 536 906.2 536.7 l -2.4 -13.5 s -13.5 -14.5 -14.2 -33.2 c 0 0 -4.2 -16.9 -0.7 -21.4 c 0 0 13.5 14.5 28.7 14.2 a 286.4 286.4 0 0 1 33.2 1.7 s -3.5 -11.1 0 -15.2 c 0 0 -38.4 -1.7 -44.3 -11.1 c 0 0 -16.9 -13.5 -17.6 -22.5 a 9.9 9.9 0 0 0 -5.2 -8.2 a 13.5 13.5 0 0 0 -7.8 -1.7 l -7.8 0.5 s 13.5 23.9 12.8 27 s 0.7 28.4 0.7 28.4 S 866 448.2 859.1 444.4 S 844.3 425 844.3 425 l 1.4 -7.9" transform="translate(-85,-85.1)" fill="#c48c96"/>
    <path d="M 838 453.4 s 8.3 28 13.1 31.5 s 34.2 21.1 42.9 16.9 c 0 0 2.1 10.4 -1 12.8 c 0 0 -32.3 -1.3 -32.5 -1.4 c 0 0 -21.1 -2.8 -24.6 -13.1 s -7.6 -28 -7.6 -28 Z" transform="translate(-85,-85.1)" opacity="0.1"/>
    <ellipse cx="797.3" cy="398.2" rx="1.2" ry="1.7" fill="#ba7855"/>
    <ellipse cx="800.8" cy="410.3" rx="1.2" ry="1.7" fill="#ba7855"/>
    <g opacity="0.1">
        <path d="M 834.2 545 s -2.1 -26.6 0 -31.5 s 0.7 -21.4 0.7 -21.4 s -5.5 -7.3 -13.1 -23.9 c -4.8 -10.6 -4.5 -17.9 -3.6 -21.9 a 7.4 7.4 0 0 1 3.4 -4.7 c 4.4 -2.7 14.3 -9.3 17.2 -15.7 c 2.1 -4.7 4.8 -7 6.8 -8.2 l 0.1 -0.8 s -5.5 1 -9.3 9.3 c -2.9 6.4 -12.8 13 -17.2 15.7 a 7.4 7.4 0 0 0 -3.4 4.7 c -0.9 3.9 -1.2 11.3 3.6 21.9 c 7.6 16.6 13.1 23.9 13.1 23.9 s 1.4 16.6 -0.7 21.4 s 0 31.5 0 31.5 s 25.9 4.9 41.3 2.3 C 857.6 549.5 834.2 545 834.2 545 Z" transform="translate(-85,-85.1)"/>
        <path d="M 880.9 453.4 c -0.5 2.1 0 14.7 0.4 22.3 c 1.7 3.4 2.7 5.7 2.7 5.7 s -1.4 -25.3 -0.7 -28.4 c 0.7 -3 -11.5 -24.7 -12.7 -26.8 l -2.5 0.2 S 881.6 450.3 880.9 453.4 Z" transform="translate(-85,-85.1)"/>
        <path d="M 920 482.4 c -15.2 0.3 -28.7 -14.2 -28.7 -14.2 a 5.5 5.5 0 0 0 -0.9 1.9 c 4 3.7 15 12.9 27.2 12.7 a 286.4 286.4 0 0 1 33.2 1.7 s -0.1 -0.2 -0.2 -0.6 A 275.3 275.3 0 0 0 920 482.4 Z" transform="translate(-85,-85.1)"/>
        <path d="M 893 511.5 s 0.1 2.2 0.1 5.4 c 3.6 7.1 10.2 19.4 13.1 19.8 l -0.5 -2.8 C 900.6 527.6 893 511.5 893 511.5 Z" transform="translate(-85,-85.1)"/>
    </g>
    <path d="M 902.7 508 l -7.3 1.6 l -5.8 1.2 l 3.1 -8.7 l 2.2 -0.5 l 3.4 -0.8 s 4.8 -24.2 14.5 -22.5 S 902.7 508 902.7 508 Z" transform="translate(-85,-85.1)" fill="#714b4f"/>
    <path d="M 895.4 509.6 l -5.8 1.2 l 3.1 -8.7 l 2.2 -0.5 A 34.5 34.5 0 0 1 895.4 509.6 Z" transform="translate(-85,-85.1)" opacity="0.1"/>
    <path d="M 838 452.7 s 8.3 28 13.1 31.5 s 34.2 21.1 42.9 16.9 c 0 0 2.1 10.4 -1 12.8 c 0 0 -32.3 -1.3 -32.5 -1.4 c 0 0 -21.1 -2.8 -24.6 -13.1 s -7.6 -28 -7.6 -28 Z" transform="translate(-85,-85.1)" fill="#c48c96"/>
    <path d="M 848.4 407.7 s -0.7 2.7 -1.6 6.7 a 18.7 18.7 0 0 0 20.6 9.5 c -0.8 -3.5 -0.7 -7.1 1.8 -9.9 Z" transform="translate(-85,-85.1)" opacity="0.1"/>
    <circle cx="777.9" cy="319.9" r="18.7" fill="#714b4f"/>
    <path d="M 879.1 399.8 a 10 10 0 0 0 4.2 0.3 a 6.8 6.8 0 0 0 5.1 -6.5 a 10 10 0 0 0 -3.9 -7.7 c -1.6 -1.3 -3.5 -2.3 -4.9 -3.7 c -1.7 -1.8 -2.6 -4.1 -4 -6.2 a 18.3 18.3 0 0 0 -9.4 -7.3 c -2.9 -1 -6.4 -1.1 -8.6 1 c -1.1 1.1 -1.8 2.6 -3 3.5 c -1.8 1.3 -4.3 0.9 -6.5 1.2 a 12.5 12.5 0 0 0 -9.4 7 a 17.6 17.6 0 0 0 -0.9 12 c 0.4 1.7 1.1 3.3 1.5 5 c 1 3.5 1.2 7.2 2.3 10.7 s 3.4 6.9 6.9 7.9 a 21.9 21.9 0 0 1 2.2 -11.3 a 3.2 3.2 0 0 1 1.6 -1.8 a 3.8 3.8 0 0 1 1.9 0 a 19 19 0 0 0 12.7 -2.6 c 1.3 -0.8 3.4 -3.6 4.8 -3.8 C 873.5 397.2 877.3 399.4 879.1 399.8 Z" transform="translate(-85,-85.1)" opacity="0.1"/>
    <path d="M 879.1 399.1 a 10 10 0 0 0 4.2 0.3 a 6.8 6.8 0 0 0 5.1 -6.5 a 10 10 0 0 0 -3.9 -7.7 c -1.6 -1.3 -3.5 -2.3 -4.9 -3.7 c -1.7 -1.8 -2.6 -4.1 -4 -6.2 a 18.3 18.3 0 0 0 -9.4 -7.3 c -2.9 -1 -6.4 -1.1 -8.6 1 c -1.1 1.1 -1.8 2.6 -3 3.5 c -1.8 1.3 -4.3 0.9 -6.5 1.2 a 12.5 12.5 0 0 0 -9.4 7 a 17.6 17.6 0 0 0 -0.9 12 c 0.4 1.7 1.1 3.3 1.5 5 c 1 3.5 1.2 7.2 2.3 10.7 s 3.4 6.9 6.9 7.9 A 21.9 21.9 0 0 1 850.8 405 a 3.2 3.2 0 0 1 1.6 -1.8 a 3.8 3.8 0 0 1 1.9 0 a 19 19 0 0 0 12.7 -2.6 c 1.3 -0.8 3.4 -3.6 4.8 -3.8 C 873.5 396.5 877.3 398.7 879.1 399.1 Z" transform="translate(-85,-85.1)" fill="#503f43"/>
    <path d="M 1065.5 337.5 l -15.2 170.7 l -68.5 19 l -68.3 -19 L 898.2 337.5 H 1065.5 Z" transform="translate(-85,-85.1)" fill="#e44d26"/>
    <path d="M 981.9 512.7 l 55.4 -15.3 l 13 -145.9 H 981.9 Z" transform="translate(-85,-85.1)" fill="#f16529"/>
    <path d="M 952.2 393.3 h 29.6 V 372.4 H 929.4 l 0.5 5.6 l 5.2 57.7 h 46.9 V 414.8 H 954.2 Z M 957 446.2 h -21 l 2.9 32.9 L 981.8 491 l 0.1 0 V 469.1 l -0.1 0 l -23.3 -6.3 L 957 446.2 Z" transform="translate(-85,-85.1)" fill="#ebebeb"/>
    <path fill="rgb(255, 255, 255)" d="M 913.8 291.1 h 10.6 V 301.6 h 9.7 V 291.1 h 10.6 v 31.8 H 934.2 V 312.3 h -9.7 v 10.7 H 913.8 V 291.1 Z m 45 10.6 h -9.4 V 291.1 h 29.4 v 10.6 h -9.4 v 21.3 H 958.8 V 301.6 h 0 Z m 24.7 -10.6 h 11.1 l 6.8 11.2 l 6.8 -11.2 h 11.1 v 31.8 h -10.6 V 307.1 l -7.3 11.3 h -0.2 l -7.3 -11.3 v 15.8 H 983.5 Z m 41.1 0 h 10.6 V 312.4 h 15 v 10.5 h -25.6 V 291.1 Z" transform="matrix(1,0,0,1,-85,-85.1)"/>
    <path d="M 981.8 435.7 h 25.8 l -2.4 27.2 l -23.4 6.3 V 491 l 42.9 -11.9 l 0.3 -3.5 l 4.9 -55.1 l 0.5 -5.6 H 981.8 v 20.9 Z m 0 -42.4 v 0.1 h 50.6 l 0.4 -4.7 l 1 -10.6 l 0.5 -5.6 H 981.8 v 20.9 Z" transform="translate(-85,-85.1)" fill="#ffffff"/>
    <path d="M 451.7 463.5 c -1.9 -5.7 -4.8 -13 -7 -14.7 a 2.1 2.1 0 0 0 -0.4 -0.3 H 444 v -7 l -5.3 0.8 a 50.3 50.3 0 0 1 -1.9 -7.8 a 3.6 3.6 0 0 0 4 0.8 c -0.1 -0.1 -0.2 -0.3 -0.2 -0.4 l 0.2 -0.1 a 9.8 9.8 0 0 1 -1.3 -4.8 a 17.4 17.4 0 0 1 0.7 -4.5 c 0.9 -3.3 2.5 -6.3 3.4 -9.6 a 23.2 23.2 0 0 0 0.8 -6.5 A 23.5 23.5 0 0 0 442 398.8 a 6.2 6.2 0 0 0 -1.9 -2.4 a 24 24 0 0 0 -2.3 -1.1 a 12.3 12.3 0 0 1 -3.3 -3.3 a 29.7 29.7 0 0 0 -14.4 -9.6 a 8.4 8.4 0 0 0 -4.6 -0.4 c -3.5 1 -4.8 5.3 -7.7 7.6 c -2.5 2 -6 2.2 -9.2 2.9 a 15.6 15.6 0 0 0 -8.5 4.5 a 9.3 9.3 0 0 0 -2.3 6.2 a 6.2 6.2 0 0 0 2.5 5.5 a 7.9 7.9 0 0 0 6.7 0.9 a 22.8 22.8 0 0 0 17.3 28.6 l 0.6 1.1 h 0 a 47.2 47.2 0 0 1 4.3 11.2 c -4.8 2.8 -10.1 5.3 -13.3 5.6 a 22.4 22.4 0 0 1 -0.7 3.7 a 20.4 20.4 0 0 1 -4.2 8.3 c -4.3 4.9 -23.9 41.8 -23.9 41.8 s -0.6 1.5 -1.6 4 c -12.1 1.5 -31.9 3.6 -37.5 2.5 l -21.7 -20.6 s -7 5.3 -6.4 11.8 l -3.9 -3.7 s -20.6 15.7 11.9 26 l 49.5 5.8 c -4.7 14.2 -9.1 30.8 -7.8 39.8 h 0.4 a 18.7 18.7 0 0 0 2.8 -0.2 l -0.1 1.6 l -4.8 85.4 s -1.1 15.7 13.6 22.8 c 0 0 17.9 52.6 10.8 58.6 c 0 0 0.8 0.4 2.3 1.1 l -14.7 13 s -10.8 2.7 -16.8 2.2 a 4.3 4.3 0 0 0 -4.8 3.2 c 0 0.1 0 0.2 -0.1 0.3 l 0 0.1 c 0 0.1 0 0.2 0 0.3 s 0 0.1 0 0.1 s 0 0.2 0 0.3 l 0 0.1 c 0 0.1 0 0.2 0.1 0.3 l 0 0.1 q 0.1 0.2 0.1 0.4 l 0 0.1 c 0.1 0.1 0.1 0.2 0.2 0.4 l 0 0.1 c 0.1 0.1 0.1 0.2 0.2 0.4 l 0.1 0.1 q 0.1 0.2 0.3 0.4 l 0.1 0.1 c 0.1 0.1 0.2 0.3 0.4 0.4 l 0.1 0 l 0.4 0.3 l 0.1 0.1 l 0.5 0.3 l 0.1 0.1 l 0.6 0.3 l 0.1 0 l 0.6 0.3 l 0.1 0 l 0.7 0.3 l 0.1 0.1 l 0.8 0.3 l 0.1 0 l 0.8 0.2 l 0.1 0 l 1 0.2 l 0.2 0 l 1 0.1 l 0.2 0 l 1.1 0.1 c 2.2 0.2 5.2 0.2 8.7 0.2 h 0 s 0 0.1 0 0.1 s 0 0.2 0 0.3 l 0 0.1 c 0 0.1 0 0.2 0.1 0.3 l 0 0.1 q 0.1 0.2 0.1 0.4 l 0 0.1 c 0.1 0.1 0.1 0.2 0.2 0.4 l 0 0.1 c 0.1 0.1 0.1 0.2 0.2 0.4 l 0.1 0.1 q 0.1 0.2 0.3 0.4 l 0.1 0.1 c 0.1 0.1 0.2 0.3 0.4 0.4 l 0.1 0 l 0.4 0.3 l 0.1 0.1 l 0.5 0.3 l 0.1 0.1 l 0.6 0.3 l 0.1 0 l 0.6 0.3 l 0.1 0 l 0.7 0.3 l 0.1 0.1 l 0.8 0.3 l 0.1 0 l 0.8 0.2 l 0.1 0 l 1 0.2 l 0.2 0 l 1 0.1 l 0.2 0 l 1.1 0.1 c 14.1 1.1 59.1 -2.2 59.1 -2.2 l 0 -0.1 v 0 l 0 -0.2 v 0 c 0.5 -2.1 2.6 -14.3 -5.1 -23.3 c 0.2 -0.2 0.5 -0.5 0.7 -0.8 c 0 0 -6 -10.3 -2.7 -13.6 S 413.6 677 413.6 677 s -10.3 -16.3 -4.3 -34.7 s -0.5 -38.5 -0.5 -38.5 S 423 599.5 423.3 582 c 0 -0.5 0 -1.1 0 -1.6 a 5.8 5.8 0 0 0 0.9 0.1 a 4.2 4.2 0 0 0 0.6 0 s -2.7 -9.8 0.5 -16.8 s 10.3 -0.5 16.8 -29.3 c 4.7 -20.8 8.8 -44.7 10.8 -56.4 A 29.7 29.7 0 0 0 451.7 463.5 Z m -123.8 61 l -5 -4.7 c 1.6 0.7 3.5 1.3 5.5 2 L 347.1 524 C 338.8 524.8 331 525.2 327.9 524.5 Z" transform="translate(-85,-85.1)" fill="url(#016d359d-0d48-4404-968f-1612e9b5c7a7)"/>
    <path d="M 375.1 521.8 s -38.4 5.3 -46.4 3.7 l -21.3 -20.3 s -20.3 15.5 11.7 25.6 l 59.7 6.9 Z" transform="translate(-85,-85.1)" fill="#fdc2cc"/>
    <path d="M 375.1 521.8 s -38.4 5.3 -46.4 3.7 l -21.3 -20.3 s -20.3 15.5 11.7 25.6 l 59.7 6.9 Z" transform="translate(-85,-85.1)" opacity="0.05"/>
    <path d="M 300 535.2 l -82.9 -23 l -18.5 -207.3 H 401.7 l -18.5 207.3 L 300 535.2 Z" transform="translate(-85,-85.1)" fill="#264de4"/>
    <path d="M 367.3 499 l 15.8 -177.1 h -83 V 517.6 L 367.3 499 Z" transform="translate(-85,-85.1)" fill="#2965f1"/>
    <path d="M 241 398.7 l 2.3 25.4 h 56.9 V 398.7 Z m -4.6 -51.5 l 2.3 25.4 h 61.4 V 347.3 H 236.4 Z m 63.8 117.5 l -0.1 0 l -28.3 -7.7 l -1.8 -20.3 H 244.4 l 3.6 39.9 L 300 491.2 l 0.1 0 Z" transform="translate(-85,-85.1)" fill="#ebebeb"/>
    <path fill="rgb(255, 255, 255)" d="M 246.4 248.6 h 30.8 v 12.9 H 259.3 v 12.9 h 17.9 v 12.9 H 246.4 Z m 37 0 h 30.8 v 11.2 H 296.2 V 262 h 17.9 v 25.8 H 283.3 V 276 h 17.9 v -2.2 H 283.3 V 248.6 Z m 37 0 h 30.8 v 11.2 H 333.2 V 262 h 17.9 v 25.8 H 320.3 V 276 H 338.2 v -2.2 H 320.3 V 248.6 Z" transform="matrix(1,0,0,1,-85,-85.1)"/>
    <path d="M 359.1 398.7 l 4.6 -51.5 H 300 v 25.4 h 35.8 l -2.3 26 H 300 v 25.4 h 31.3 l -3 33 L 300 464.8 v 26.4 l 52.1 -14.4 l 0.4 -4.3 l 6 -66.9 l 0.6 -6.8 Z" transform="translate(-85,-85.1)" fill="#ffffff"/>
    <path d="M 389 738.2 l -18.7 16.5 s -10.7 2.7 -16.5 2.1 s -8.5 9.1 5.3 10.1 s 58.1 -2.1 58.1 -2.1 s 4.3 -17.1 -8.5 -26.6 Z" transform="translate(-85,-85.1)" fill="#47465a"/>
    <path d="M 389 738.2 l -18.7 16.5 s -10.7 2.7 -16.5 2.1 s -8.5 9.1 5.3 10.1 s 58.1 -2.1 58.1 -2.1 s 4.3 -17.1 -8.5 -26.6 Z" transform="translate(-85,-85.1)" opacity="0.05"/>
    <path d="M 417.9 757.5 a 29.4 29.4 0 0 1 -0.7 5.8 s -44.2 3.2 -58.1 2.1 c -6.7 -0.5 -9.5 -3 -10 -5.4 c -0.6 2.7 1.8 6.3 10 7 c 13.9 1.1 58.1 -2.1 58.1 -2.1 A 30.8 30.8 0 0 0 417.9 757.5 Z" transform="translate(-85,-85.1)" fill="#ffffff" opacity="0.3"/>
    <path d="M 410.8 436 s 11.7 16.5 7.5 27.7 s 22.4 -11.7 22.4 -11.7 S 432.2 437 436.4 421 Z" transform="translate(-85,-85.1)" fill="#fdc2cc"/>
    <path d="M 407.6 744.6 L 389 761.1 s -10.7 2.7 -16.5 2.1 s -8.5 9.1 5.3 10.1 s 58.1 -2.1 58.1 -2.1 s 4.3 -17.1 -8.5 -26.6 Z" transform="translate(-85,-85.1)" fill="#47465a"/>
    <path d="M 413 740.9 c -2.8 3.4 -6.7 4.8 -10.8 5 c -9.3 0.4 -19.6 -5 -19.6 -5 c 6.9 -5.9 -10.7 -57.6 -10.7 -57.6 c -14.4 -6.9 -13.3 -22.4 -13.3 -22.4 L 363.3 577 l 1.2 -21.1 l 14.9 -9.1 l 11.8 9 l 11.2 8.6 a 44.9 44.9 0 0 1 1.4 8.3 c 1.3 19.6 -14.2 24.2 -14.2 24.2 s 6.4 19.7 0.5 37.9 s 4.3 34.1 4.3 34.1 s 19.2 55.4 16 58.6 S 413 740.9 413 740.9 Z" transform="translate(-85,-85.1)" fill="#565171"/>
    <path d="M 413 740.9 c -2.8 3.4 -6.7 4.8 -10.8 5 c -9.3 0.4 -19.6 -5 -19.6 -5 c 6.9 -5.9 -10.7 -57.6 -10.7 -57.6 c -14.4 -6.9 -13.3 -22.4 -13.3 -22.4 L 363.3 577 l 1.2 -21.1 l 14.9 -9.1 l 11.8 9 l 11.2 8.6 a 44.9 44.9 0 0 1 1.4 8.3 c 1.3 19.6 -14.2 24.2 -14.2 24.2 s 6.4 19.7 0.5 37.9 s 4.3 34.1 4.3 34.1 s 19.2 55.4 16 58.6 S 413 740.9 413 740.9 Z" transform="translate(-85,-85.1)" opacity="0.05"/>
    <path d="M 431.6 747.3 c -9.1 11.2 -30.4 0 -30.4 0 a 3.4 3.4 0 0 0 0.9 -1.4 c 3.9 -10.6 -13.2 -61.5 -13.2 -61.5 c -14.4 -6.9 -16 -23.4 -16 -23.4 l -3.8 -85.4 l -0.5 -11.1 l 22.4 -8.6 l 6.9 -2.6 L 421 570.8 A 41.6 41.6 0 0 1 422.4 582 c -0.3 17.2 -14.3 21.4 -14.3 21.4 s 6.4 19.7 0.5 37.9 S 413 675.3 413 675.3 s 19.2 55.4 16 58.6 S 431.6 747.3 431.6 747.3 Z" transform="translate(-85,-85.1)" fill="#565171"/>
    <path d="M 422.4 582 c -4.6 -0.7 -13.9 -6.2 -18.7 -9.2 c -1.8 -1.1 -3 -1.9 -3 -1.9 s -4.8 -13.3 -17.6 -3.2 a 47.9 47.9 0 0 1 -13.9 7.9 a 32.5 32.5 0 0 1 -5.9 1.5 l 1.2 -21.1 l 14.9 -9.1 l 11.8 9 l 6.9 -2.6 L 421 570.8 A 41.6 41.6 0 0 1 422.4 582 Z" transform="translate(-85,-85.1)" opacity="0.1"/>
    <path d="M 451.3 479.7 c -1.9 11.4 -6 35 -10.6 55.4 c -6.4 28.3 -13.3 21.9 -16.5 28.8 s -0.5 16.5 -0.5 16.5 c -5.3 0.5 -22.9 -11.2 -22.9 -11.2 s -4.8 -13.3 -17.6 -3.2 s -22.9 9.6 -22.9 9.6 c -2.7 -17.6 17.1 -64.5 17.1 -64.5 s 19.2 -36.3 23.4 -41 a 20 20 0 0 0 4.1 -8.1 a 22.1 22.1 0 0 0 0.7 -3.6 c 6.9 -0.5 24 -12.3 24 -12.3 l 13.3 -2.1 v 6.9 a 2 2 0 0 1 0.4 0.3 c 2.2 1.7 5 8.8 6.9 14.4 A 29.2 29.2 0 0 1 451.3 479.7 Z" transform="translate(-85,-85.1)" fill="#e1a0a7"/>
    <path d="M 389 529.8 l -6.9 -0.8 l -52.8 -6.1 c -32 -10.1 -11.7 -25.6 -11.7 -25.6 l 21.3 20.3 c 6.2 1.2 30.3 -1.6 41.1 -3 c 3.2 -0.4 5.3 -0.7 5.3 -0.7 Z" transform="translate(-85,-85.1)" fill="#fdc2cc"/>
    <path d="M 440.7 457.8 S 426.8 446.6 406 482.9 s -25.6 30.4 -25.6 30.4 s 4.3 16 2.1 19.2 c 0 0 14.4 -1.1 19.7 0 s 38.4 -40.5 38.4 -40.5 S 457.8 468.5 440.7 457.8 Z" transform="translate(-85,-85.1)" opacity="0.1"/>
    <path d="M 440.2 455.7 s -13.9 -11.2 -34.6 25.1 s -25.6 30.4 -25.6 30.4 s 16.5 18.1 21.9 19.2 s 38.4 -40.5 38.4 -40.5 S 457.2 466.3 440.2 455.7 Z" transform="translate(-85,-85.1)" opacity="0.1"/>
    <path d="M 382.1 529 c 0.2 -4 -1.3 -10.9 -2.1 -14.5 c 3.2 -0.4 5.3 -0.7 5.3 -0.7 l 3.7 16 Z" transform="translate(-85,-85.1)" opacity="0.1"/>
    <path d="M 440.7 456.7 S 426.8 445.6 406 481.8 s -25.6 30.4 -25.6 30.4 s 4.3 16 2.1 19.2 c 0 0 14.4 -1.1 19.7 0 s 38.4 -40.5 38.4 -40.5 S 457.8 467.4 440.7 456.7 Z" transform="translate(-85,-85.1)" fill="#e1a0a7"/>
    <path d="M 437 422.1 L 411.4 437 a 54.7 54.7 0 0 1 3 4.9 a 22.5 22.5 0 0 0 4.5 0.5 c 6.8 0 10 -7.2 14.1 -12 C 432.7 426.5 435.8 426.4 437 422.1 Z" transform="translate(-85,-85.1)" opacity="0.1"/>
    <circle cx="333.3" cy="333.8" r="22.4" fill="#fdc2cc"/>
    <path d="M 390 400.8 a 15.3 15.3 0 0 1 8.4 -4.4 c 3.1 -0.7 6.5 -0.9 9 -2.9 c 2.8 -2.3 4.1 -6.5 7.5 -7.5 a 8.3 8.3 0 0 1 4.5 0.4 a 29.2 29.2 0 0 1 14.1 9.4 a 12.1 12.1 0 0 0 3.3 3.3 a 23.6 23.6 0 0 1 2.2 1.1 a 6.1 6.1 0 0 1 1.8 2.4 a 23.2 23.2 0 0 1 1.6 16.3 c -0.9 3.2 -2.4 6.2 -3.4 9.4 s -1.2 6.8 0.5 9.7 c -1.6 0.8 -3.7 -0.2 -4.7 -1.8 s -1.3 -3.4 -1.9 -5.2 a 19.8 19.8 0 0 0 -5.8 -9 c -1.7 -1.5 -4.7 -2.5 -5.8 -0.6 c -0.5 0.7 -0.4 1.7 -0.8 2.5 c -0.8 1.5 -3 1.8 -4.4 1 a 6.8 6.8 0 0 1 -2.8 -4.1 c -2.2 -7.4 -5.9 -12.1 -13.9 -8.9 c -3 1.2 -6.5 2 -9.3 0 C 386.6 409.1 387.3 403.8 390 400.8 Z" transform="translate(-85,-85.1)" opacity="0.1"/>
    <path d="M 390 400.3 a 15.3 15.3 0 0 1 8.4 -4.4 c 3.1 -0.7 6.5 -0.9 9 -2.9 c 2.8 -2.3 4.1 -6.5 7.5 -7.5 a 8.3 8.3 0 0 1 4.5 0.4 a 29.2 29.2 0 0 1 14.1 9.4 a 12.1 12.1 0 0 0 3.3 3.3 a 23.6 23.6 0 0 1 2.2 1.1 a 6.1 6.1 0 0 1 1.8 2.4 a 23.2 23.2 0 0 1 1.6 16.3 c -0.9 3.2 -2.4 6.2 -3.4 9.4 s -1.2 6.8 0.5 9.7 c -1.6 0.8 -3.7 -0.2 -4.7 -1.8 s -1.3 -3.4 -1.9 -5.2 a 19.8 19.8 0 0 0 -5.8 -9 c -1.7 -1.5 -4.7 -2.5 -5.8 -0.6 c -0.5 0.7 -0.4 1.7 -0.8 2.5 c -0.8 1.5 -3 1.8 -4.4 1 a 6.8 6.8 0 0 1 -2.8 -4.1 c -2.2 -7.4 -5.9 -12.1 -13.9 -8.9 c -3 1.2 -6.5 2 -9.3 0 C 386.6 408.6 387.3 403.3 390 400.3 Z" transform="translate(-85,-85.1)" fill="#8f5a6a"/>
    <path d="M 443.3 451.1 H 432.4 s -21.3 10.7 -21.9 10.1 c -0.4 -0.4 -3.7 0.3 -5.8 0.7 a 22.1 22.1 0 0 0 0.7 -3.6 c 6.9 -0.5 24 -12.3 24 -12.3 l 13.3 -2.1 v 6.9 A 2 2 0 0 1 443.3 451.1 Z" transform="translate(-85,-85.1)" opacity="0.05"/>
    <path d="M 436.6 763.9 a 29.4 29.4 0 0 1 -0.7 5.8 s -44.2 3.2 -58.1 2.1 c -6.7 -0.5 -9.5 -3 -10 -5.4 c -0.6 2.7 1.8 6.3 10 7 c 13.9 1.1 58.1 -2.1 58.1 -2.1 A 30.8 30.8 0 0 0 436.6 763.9 Z" transform="translate(-85,-85.1)" fill="#ffffff" opacity="0.3"/>
    <g opacity="0.05">
        <path d="M 378.1 565.5 c -7.2 5.7 -13.6 8 -17.7 9 c 0 0.4 0.1 0.8 0.1 1.2 c 0 0 10.1 0.5 22.9 -9.6 a 17.2 17.2 0 0 1 6.8 -3.6 C 387.4 561.1 383.5 561.2 378.1 565.5 Z" transform="translate(-85,-85.1)"/>
        <path d="M 450.4 465.5 c -1.9 -5.6 -4.7 -12.7 -6.9 -14.4 a 2 2 0 0 0 -0.4 -0.3 s -4.4 0.1 -4.3 0.3 c 2.2 1.7 4.3 8.3 6.2 13.9 a 29.2 29.2 0 0 1 1.2 14.2 c -1.9 11.4 -6 35 -10.6 55.4 c -6.4 28.3 -13.3 21.9 -16.5 28.8 c -2.6 5.7 -1.3 13.1 -0.7 15.7 a 13.4 13.4 0 0 0 5.5 1.4 s -2.7 -9.6 0.5 -16.5 s 10.1 -0.5 16.5 -28.8 c 4.6 -20.4 8.7 -44 10.6 -55.4 A 29.2 29.2 0 0 0 450.4 465.5 Z" transform="translate(-85,-85.1)"/>
    </g>
    <path d="M 512.4 565.1 a 11.7 11.7 0 0 0 3.8 -5.8 c 0.5 -2.3 -0.5 -5 -2.7 -5.9 c -2.5 -0.9 -5.1 0.8 -7.1 2.5 s -4.3 3.7 -6.9 3.3 a 10.5 10.5 0 0 0 3.2 -9.8 a 4.1 4.1 0 0 0 -0.9 -2 c -1.4 -1.5 -3.8 -0.8 -5.5 0.3 c -5.2 3.7 -6.7 10.7 -6.7 17.1 c -0.5 -2.3 -0.1 -4.7 -0.1 -7 s -0.7 -5 -2.6 -6.2 a 8 8 0 0 0 -4 -0.9 c -2.3 -0.1 -4.9 0.1 -6.5 1.9 c -2 2.1 -1.5 5.7 0.3 8 s 4.3 3.8 6.8 5.4 a 15 15 0 0 1 4.8 4.6 a 4.6 4.6 0 0 1 0.4 0.8 h 14.7 A 40.8 40.8 0 0 0 512.4 565.1 Z" transform="translate(-85,-85.1)" fill="#1fc2a3"/>
    <path d="M 539.3 752.9 c 2.3 -2.2 4.5 -4.7 5.2 -7.8 s -0.7 -6.8 -3.6 -8 c -3.3 -1.3 -6.9 1 -9.6 3.4 s -5.8 5 -9.3 4.5 a 14.2 14.2 0 0 0 4.4 -13.3 a 5.6 5.6 0 0 0 -1.2 -2.7 c -1.9 -2 -5.2 -1.1 -7.4 0.4 c -7 5 -9 14.5 -9.1 23.1 c -0.7 -3.1 -0.1 -6.3 -0.1 -9.5 s -0.9 -6.7 -3.6 -8.4 a 10.8 10.8 0 0 0 -5.5 -1.3 c -3.2 -0.1 -6.7 0.2 -8.9 2.5 c -2.7 2.9 -2 7.7 0.3 10.9 s 5.9 5.2 9.2 7.3 a 20.3 20.3 0 0 1 6.5 6.3 a 6.2 6.2 0 0 1 0.5 1.1 H 527 A 55.4 55.4 0 0 0 539.3 752.9 Z" transform="translate(-85,-85.1)" fill="#1fc2a3"/>
</svg>
