<?xml version="1.0" encoding="utf-8"?>
<!--Generator: Adobe Illustrator 18.0.0, SVG Export Plug-In . SVG Version: 6.00 Build 0)-->
<!DOCTYPE svg PUBLIC "-//W3C//DTD SVG 1.1//EN" "http://www.w3.org/Graphics/SVG/1.1/DTD/svg11.dtd">
<svg version="1.1" id="Layer_1" xmlns="http://www.w3.org/2000/svg" xmlns:xlink="http://www.w3.org/1999/xlink" x="0px" y="0px" viewBox="0 0 58.5 37.3" enable-background="new 0 0 58.5 37.3" xml:space="preserve">
    <path fill-rule="evenodd" clip-rule="evenodd" fill="#1fc2a3" d="M 54.7 26.3 L 32.5 4.2 c -2 -1.9 -5 -1.9 -6.9 0 L 3.4 26.3 c -2 2 -2.4 4.8 -0.4 6.7 l 0.8 0.9 c 1.7 1.6 3.9 1.9 5.4 0.2 c 5.5 -5.5 11 -10.8 16.5 -16.3 c 1.8 -2 4.9 -2 6.9 0 c 5.5 5.5 10.9 10.8 16.3 16.3 c 1.7 1.7 3.7 1.4 5.5 -0.2 l 0.7 -0.9 C 57.1 31.1 56.7 28.3 54.7 26.3 L 54.7 26.3 z"/>
</svg>
